<svg xmlns="http://www.w3.org/2000/svg" viewBox="0 0 1857.59814 584.67334">
  <defs>
    <style>
      .cls-1 {
        isolation: isolate;
      }
      .cls-2 {
        mix-blend-mode: color-dodge;
      }
      .cls-3 {
        fill: rgb(255, 124, 248);
       <!-- not perfect, needs fixing -->
        fill: color(display-p3 1 0.545 0.955);
      }
    </style>
  </defs>
  <g class="cls-1">
    <g id="Layer_1" data-name="Layer 1">
      <g class="cls-2">
        <path
          class="cls-3"
          d="M365.87451,605.86133q-39.91771,16.82226-80.61767,16.82812-64.18727,0-115.44727-22.30664-51.27319-22.3081-86.48779-61.44238Q48.10034,499.813,29.31543,446.97412,10.531,394.14234,10.53076,333.09229q0-62.60962,18.78467-116.23047,18.78516-53.6023,54.00635-93.53174,35.2207-39.91773,86.48779-62.61572,51.25414-22.6919,115.44727-22.69825a271.60417,271.60417,0,0,1,83.35693,12.91455A236.34418,236.34418,0,0,1,441.4043,88.8916,208.16993,208.16993,0,0,1,495.019,150.72412q21.13257,36.79908,25.8291,84.53125H403.44385q-10.97022-46.96215-42.26563-70.44287-31.314-23.48071-75.92138-23.48047-41.49537,0-70.44239,16.04492a132.98037,132.98037,0,0,0-46.96191,43.04834q-18.01392,27.00294-26.22022,61.44141a305.87668,305.87668,0,0,0-8.21826,71.22559,284.45188,284.45188,0,0,0,8.21826,68.48583,184.764,184.764,0,0,0,26.22022,59.876,134.21279,134.21279,0,0,0,46.96191,42.65723q28.94751,16.05028,70.44239,16.04492,61.05028,0,94.31494-30.917,33.25781-30.90967,38.74316-89.61817h-123.666V308.0459H529.45752V610.166H451.188l-12.523-63.39844Q405.79175,589.03272,365.87451,605.86133Z"
          transform="translate(-10.53076 -38.01611)"
        />
      </g>
      <g class="cls-2">
        <path
          class="cls-3"
          d="M498.019,330.99561q2.34814-39.12891,19.56739-64.96387a133.21313,133.21313,0,0,1,43.83105-41.48291q26.59937-15.64746,59.876-22.30664a340.96586,340.96586,0,0,1,66.92041-6.65283,454.87476,454.87476,0,0,1,61.833,4.30468,189.56326,189.56326,0,0,1,57.13671,16.82813,112.61407,112.61407,0,0,1,42.26514,34.82959q16.437,22.30737,16.437,59.09375V521.19043a422.00642,422.00642,0,0,0,3.13037,52.44043q3.11865,25.05908,10.958,37.56934h-112.708a156.86485,156.86485,0,0,1-5.0874-19.17579,164.3251,164.3251,0,0,1-2.73975-19.959A144.79,144.79,0,0,1,696.82373,610.418,251.49334,251.49334,0,0,1,623.25,621.375a198.72428,198.72428,0,0,1-54.00586-7.04395,123.53389,123.53389,0,0,1-43.83057-21.916A101.86953,101.86953,0,0,1,496.0625,554.8457q-10.56664-22.6919-10.56641-54.00586,0-34.43115,12.13184-56.74511,12.12525-22.30665,31.30762-35.61231a140.4065,140.4065,0,0,1,43.83105-19.959A471.65606,471.65606,0,0,1,622.46729,377.957q25.04076-3.90747,49.31-6.26123a296.72539,296.72539,0,0,0,43.04834-7.04443q18.78442-4.69629,29.74219-13.69727,10.95191-8.98828,10.17481-26.22021,0-17.9956-5.87012-28.56836A43.19482,43.19482,0,0,0,733.21875,279.729a61.70388,61.70388,0,0,0-22.69824-7.82714,186.89274,186.89274,0,0,0-27.78565-1.95655q-32.87328,0-51.65771,14.08838-18.78442,14.08887-21.91553,46.96192Zm256.72364,82.18261a49.71338,49.71338,0,0,1-17.61036,9.78369,180.03953,180.03953,0,0,1-22.69824,5.87061q-12.14355,2.34814-25.4375,3.91309-13.31835,1.57763-26.61181,3.91357A201.09085,201.09085,0,0,0,637.73,442.9209a73.10027,73.10027,0,0,0-21.13281,10.5664,50.21136,50.21136,0,0,0-14.47949,16.82764q-5.48511,10.1814-5.479,25.82959,0,14.877,5.479,25.0459a41.90557,41.90557,0,0,0,14.87109,16.04492,62.71821,62.71821,0,0,0,21.91553,8.21875,139.74221,139.74221,0,0,0,25.82861,2.34766q32.8733,0,50.87549-10.958,17.9956-10.95117,26.61133-26.21973a83.94952,83.94952,0,0,0,10.5664-30.917,214.07249,214.07249,0,0,0,1.95655-25.0459Z"
          transform="translate(-10.53076 -38.01611)"
        />
      </g>
      <g class="cls-2">
        <path
          class="cls-3"
          d="M1078.24707,204.78125v74.356H996.84668V479.50684q0,28.17773,9.39258,37.56933,9.39258,9.39258,37.56933,9.39258,9.39258,0,18.002-.78223a151.85752,151.85752,0,0,0,16.43652-2.34863v86.09668a265.60182,265.60182,0,0,1-31.30762,3.13086q-17.2251.77051-33.65625.78223a324.43545,324.43545,0,0,1-48.918-3.52149Q941.269,606.30322,923.665,596.12891a72.39948,72.39948,0,0,1-27.78565-28.96Q885.698,548.38379,885.7041,517.85938V279.13721H818.39258v-74.356H885.7041V83.46387H996.84668V204.78125Z"
          transform="translate(-10.53076 -38.01611)"
        />
      </g>
      <g class="cls-2">
        <path
          class="cls-3"
          d="M1151.13281,52.35645V262.90088h2.34766q21.13331-35.2207,54.00586-51.26611,32.874-16.03346,64.18164-16.04541,44.61328,0,73.18164,12.13183,28.563,12.14355,45.00488,33.65576,16.437,21.53615,23.08985,52.44043,6.64013,30.92871,6.65234,68.48584v248.897H1308.4541V382.65332q0-50.08008-15.65332-74.74707-15.66649-24.65551-55.57129-24.65527-45.40282,0-65.74707,27.00293-20.36133,27.00292-20.34961,88.83593V611.2002H1039.99023V52.35645Z"
          transform="translate(-10.53076 -38.01611)"
        />
      </g>
      <g class="cls-2">
        <path
          class="cls-3"
          d="M1354.2832,319.44629q14.85938-39.51415,42.26563-67.312,27.38819-27.77344,65.74609-43.04785,38.34082-15.26295,86.09668-15.2627,47.73194,0,86.48828,15.2627,38.74365,15.2622,66.1377,43.04785,27.38819,27.79174,42.26562,67.312,14.85792,39.53174,14.8711,88.05322,0,48.53907-14.8711,87.66162-14.87841,39.14649-42.26562,66.91992-27.40723,27.79249-66.1377,42.65723-38.74365,14.85938-86.48828,14.8711-47.74951,0-86.09668-14.8711-38.35694-14.85937-65.74609-42.65723-27.40577-27.77343-42.26563-66.91992-14.877-39.12889-14.87109-87.66162Q1339.41211,358.978,1354.2832,319.44629ZM1455.251,454.85254A125.97015,125.97015,0,0,0,1471.2959,496.335a85.3399,85.3399,0,0,0,30.13379,29.35156q18.78514,10.97022,46.96191,10.957,28.17774,0,47.35352-10.957a84.48321,84.48321,0,0,0,30.52441-29.35156,126.20734,126.20734,0,0,0,16.0459-41.48242,236.89768,236.89768,0,0,0,4.69629-47.353,242.90824,242.90824,0,0,0-4.69629-47.74463q-4.69629-23.48072-16.0459-41.48291a89.13966,89.13966,0,0,0-30.52441-29.35107q-19.188-11.33643-47.35352-11.34863-28.17627,0-46.96191,11.34863A90.14207,90.14207,0,0,0,1471.2959,318.272q-11.354,18.01466-16.04492,41.48291a242.90824,242.90824,0,0,0-4.69629,47.74463A236.89768,236.89768,0,0,0,1455.251,454.85254Z"
          transform="translate(-10.53076 -38.01611)"
        />
      </g>
      <g class="cls-2">
        <path
          class="cls-3"
          d="M1868.12891,490.3291V610.86426H1745.24609V490.3291Z"
          transform="translate(-10.53076 -38.01611)"
        />
      </g>
    </g>
  </g>
</svg>
